<svg width="32" height="33" viewBox="0 0 32 33" fill="none" xmlns="http://www.w3.org/2000/svg">
<path d="M16.0003 25.8312C17.4148 25.8312 18.7714 25.2693 19.7716 24.2691C20.7718 23.2689 21.3337 21.9124 21.3337 20.4979C21.3337 19.0834 20.7718 17.7268 19.7716 16.7266C18.7714 15.7265 17.4148 15.1646 16.0003 15.1646C14.5858 15.1646 13.2293 15.7265 12.2291 16.7266C11.2289 17.7268 10.667 19.0834 10.667 20.4979C10.667 21.9124 11.2289 23.2689 12.2291 24.2691C13.2293 25.2693 14.5858 25.8312 16.0003 25.8312V25.8312Z" stroke="white" stroke-width="2" stroke-miterlimit="10" stroke-linecap="round" stroke-linejoin="round"/>
<path d="M13.9209 20.4986L14.7876 21.3652C15.0409 21.6186 15.4542 21.6319 15.7076 21.3786L18.0809 19.1919" stroke="white" stroke-width="2" stroke-linecap="round" stroke-linejoin="round"/>
<path d="M9.99928 10.728V9.43462C9.99928 6.43462 12.4126 3.48795 15.4126 3.20795C16.2462 3.12605 17.0877 3.21959 17.8829 3.48253C18.6781 3.74548 19.4095 4.17201 20.0299 4.73468C20.6504 5.29734 21.1461 5.98368 21.4853 6.74951C21.8245 7.51534 21.9996 8.3437 21.9993 9.18128V11.0213M11.9993 29.8346H19.9993C25.3593 29.8346 26.3193 27.688 26.5993 25.0746L27.5993 17.0746C27.9593 13.8213 27.0259 11.168 21.3326 11.168H10.6659C4.97261 11.168 4.03928 13.8213 4.39928 17.0746L5.39928 25.0746C5.67928 27.688 6.63928 29.8346 11.9993 29.8346Z" stroke="white" stroke-width="2" stroke-miterlimit="10" stroke-linecap="round" stroke-linejoin="round"/>
</svg>
