<svg width="36" height="36" viewBox="0 0 36 36" fill="none" xmlns="http://www.w3.org/2000/svg">
<path d="M9.19092 11C9.19092 10.7348 9.29484 10.4804 9.47984 10.2929C9.66483 10.1054 9.91573 10 10.1773 10H12.1502C12.4118 10 12.6627 10.1054 12.8477 10.2929C13.0327 10.4804 13.1366 10.7348 13.1366 11V23C13.1366 23.2652 13.0327 23.5196 12.8477 23.7071C12.6627 23.8946 12.4118 24 12.1502 24H10.1773C9.91573 24 9.66483 23.8946 9.47984 23.7071C9.29484 23.5196 9.19092 23.2652 9.19092 23V11ZM12.1502 11H10.1773V23H12.1502V11ZM14.1231 11C14.1231 10.7348 14.227 10.4804 14.412 10.2929C14.597 10.1054 14.8479 10 15.1095 10H17.0823C17.344 10 17.5949 10.1054 17.7799 10.2929C17.9648 10.4804 18.0688 10.7348 18.0688 11V19.943L17.0823 20.943V11H15.1095V23H15.578C15.5626 23.0513 15.5485 23.103 15.5356 23.155L15.3265 24H15.1095C14.8479 24 14.597 23.8946 14.412 23.7071C14.227 23.5196 14.1231 23.2652 14.1231 23V11ZM23.0009 11V16.003C22.6645 16.019 22.3301 16.095 22.0145 16.232V11H20.0416V17.943L19.0552 18.943V11C19.0552 10.7348 19.1591 10.4804 19.3441 10.2929C19.5291 10.1054 19.78 10 20.0416 10H22.0145C22.2761 10 22.527 10.1054 22.712 10.2929C22.897 10.4804 23.0009 10.7348 23.0009 11ZM17.0626 22.377L21.8271 17.547C22.1732 17.1964 22.6425 16.9995 23.1318 16.9997C23.6211 16.9999 24.0903 17.1971 24.4362 17.548C24.782 17.8989 24.9762 18.3747 24.976 18.8707C24.9758 19.3667 24.7813 19.8424 24.4352 20.193L19.6707 25.022C19.3932 25.3035 19.0454 25.5033 18.6646 25.6L17.1869 25.974C17.04 26.0111 16.8861 26.0091 16.7401 25.9681C16.5942 25.9271 16.4612 25.8485 16.3541 25.74C16.247 25.6315 16.1694 25.4968 16.1288 25.3489C16.0882 25.201 16.0861 25.045 16.1225 24.896L16.4925 23.398C16.5872 23.012 16.7844 22.658 17.0626 22.378V22.377Z" fill="#5F5F5F"/>
</svg>
