<svg width="14" height="15" viewBox="0 0 14 15" fill="none" xmlns="http://www.w3.org/2000/svg">
<path d="M7.41438 1.69216C7.41438 1.58214 7.37068 1.47663 7.29288 1.39884C7.21509 1.32105 7.10958 1.27734 6.99957 1.27734C6.88955 1.27734 6.78404 1.32105 6.70625 1.39884C6.62845 1.47663 6.58475 1.58214 6.58475 1.69216V7.08475H1.19216C1.08214 7.08475 0.976633 7.12846 0.89884 7.20625C0.821047 7.28404 0.777344 7.38955 0.777344 7.49957C0.777344 7.60958 0.821047 7.71509 0.89884 7.79289C0.976633 7.87068 1.08214 7.91438 1.19216 7.91438H6.58475V13.307C6.58475 13.417 6.62845 13.5225 6.70625 13.6003C6.78404 13.6781 6.88955 13.7218 6.99957 13.7218C7.10958 13.7218 7.21509 13.6781 7.29288 13.6003C7.37068 13.5225 7.41438 13.417 7.41438 13.307V7.91438H12.807C12.917 7.91438 13.0225 7.87068 13.1003 7.79289C13.1781 7.71509 13.2218 7.60958 13.2218 7.49957C13.2218 7.38955 13.1781 7.28404 13.1003 7.20625C13.0225 7.12846 12.917 7.08475 12.807 7.08475H7.41438V1.69216Z" fill="white" stroke="white"/>
</svg>
